#!OML:ASF F:\VICON\USERDATA\INSTALL\rory3\rory3.ASF
:FULLY-SPECIFIED
:DEGREES
414
root 4.6997 17.47 2.89576 8.59344 -5.89027 -7.80083
lowerback 4.7907 -1.36404 3.48328
upperback 2.25901 -1.65798 1.45111
thorax -0.417 -0.814136 -0.377663
lowerneck -11.6115 0.548943 -0.782894
upperneck 37.2049 0.569965 0.823039
head 14.8216 0.174698 0.553067
rclavicle 2.32578e-014 -2.3059e-014
rhumerus -43.7118 9.6888 -40.7659
rradius 66.2506
rwrist -2.70604
rhand -12.6597 -40.8914
rfingers 7.12502
rthumb 13.4212 -70.4391
lclavicle 2.32578e-014 -2.3059e-014
lhumerus -21.4359 -3.4317 26.3948
lradius 27.628
lwrist 5.79227
lhand -26.3956 -33.6999
lfingers 7.12502
lthumb 0.163702 -3.72022
rfemur -85.4301 -7.2313 24.3771
rtibia 111.231
rfoot 47.7142 10.2709
rtoes -11.3684
lfemur -20.0864 2.01913 -21.2599
ltibia 29.7596
lfoot -15.3503 2.26225
ltoes 13.635
415
root 4.69887 17.4743 2.89443 8.58092 -5.9555 -7.84379
lowerback 4.86586 -1.36487 3.48095
upperback 2.2597 -1.65542 1.46798
thorax -0.457528 -0.813503 -0.357327
lowerneck -11.5402 0.571014 -0.702106
upperneck 37.1552 0.642357 0.653822
head 14.7817 0.194116 0.478729
rclavicle 1.37161e-014 3.18055e-015
rhumerus -43.9405 9.75707 -40.7661
rradius 66.2303
rwrist -2.92343
rhand -12.4561 -41.2161
rfingers 7.12502
rthumb 13.6175 -70.7507
lclavicle 1.37161e-014 3.18055e-015
lhumerus -21.7617 -3.47198 26.5132
lradius 27.7125
lwrist 6.03557
lhand -26.2648 -33.7662
lfingers 7.12502
lthumb 0.28998 -3.78666
rfemur -85.7575 -7.09744 24.5063
rtibia 111.343
rfoot 47.7878 9.59195
rtoes -11.4928
lfemur -19.9543 1.99578 -21.2125
ltibia 29.5662
lfoot -15.2745 2.32267
ltoes 13.6355
416
root 4.69885 17.4808 2.89489 8.54086 -5.95383 -7.89489
lowerback 4.95643 -1.41164 3.49813
upperback 2.30659 -1.71379 1.49255
thorax -0.461293 -0.842326 -0.336912
lowerneck -11.6298 0.608981 -0.650526
upperneck 37.1567 0.72763 0.537999
head 14.8035 0.221568 0.434979
rclavicle 6.16232e-015 -1.03368e-014
rhumerus -44.0043 9.67566 -40.7436
rradius 66.0745
rwrist -2.94042
rhand -13.3889 -40.2086
rfingers 7.12502
rthumb 12.7183 -69.8013
lclavicle 6.16232e-015 -1.03368e-014
lhumerus -22.0465 -3.54078 26.6123
lradius 27.6309
lwrist 6.16255
lhand -26.4965 -33.8049
lfingers 7.12502
lthumb 0.0662308 -3.82521
rfemur -86.02 -7.01742 24.63
rtibia 111.472
rfoot 47.9504 9.20888
rtoes -10.038
lfemur -19.7637 1.84235 -21.1436
ltibia 29.3458
lfoot -15.1772 2.44459
ltoes 13.8507
417
root 4.70062 17.4851 2.90418 8.46085 -5.93995 -7.84469
lowerback 4.89279 -1.44494 3.48015
upperback 2.44866 -1.76703 1.46176
thorax -0.281816 -0.865327 -0.359435
lowerneck -11.787 0.635751 -0.575201
upperneck 37.0874 0.791908 0.421822
head 14.8076 0.244342 0.383728
rclavicle 9.93923e-015 -1.43125e-014
rhumerus -44.0141 9.52959 -40.6917
rradius 65.7997
rwrist -2.82441
rhand -14.1332 -38.4209
rfingers 7.12502
rthumb 12.0007 -68.0569
lclavicle 9.93923e-015 -1.43125e-014
lhumerus -22.2277 -3.22544 26.6386
lradius 27.617
lwrist 5.91134
lhand -26.3451 -33.8877
lfingers 7.12502
lthumb 0.212426 -3.9081
rfemur -86.2422 -7.03396 24.6102
rtibia 111.676
rfoot 47.7609 9.71666
rtoes -9.50006
lfemur -19.477 1.63946 -21.2027
ltibia 29.0985
lfoot -15.1137 2.60518
ltoes 13.892
418
root 4.70382 17.4906 2.91677 8.40086 -6.00736 -7.71226
lowerback 4.71838 -1.42406 3.41578
upperback 2.59542 -1.75572 1.38558
thorax -0.0339388 -0.855296 -0.409079
lowerneck -11.869 0.621925 -0.527023
upperneck 36.9688 0.782269 0.361248
head 14.7705 0.240001 0.34842
rclavicle 6.48038e-014 -1.19271e-014
rhumerus -44.1059 9.30467 -40.581
rradius 65.6718
rwrist -2.5086
rhand -13.9894 -38.047
rfingers 7.12502
rthumb 12.1393 -67.6749
lclavicle 6.48038e-014 -1.19271e-014
lhumerus -22.3001 -2.75199 26.6593
lradius 27.5288
lwrist 5.44131
lhand -26.1695 -33.7894
lfingers 7.12502
lthumb 0.382035 -3.80996
rfemur -86.4849 -7.03089 24.4866
rtibia 111.868
rfoot 47.407 10.0457
rtoes -10.6327
lfemur -19.2075 1.55012 -21.3826
ltibia 28.8396
lfoot -15.095 2.72077
ltoes 13.863
419
root 4.70407 17.497 2.9209 8.36929 -5.98642 -7.6224
lowerback 4.72535 -1.43395 3.33802
upperback 2.59683 -1.77179 1.34649
thorax -0.0359808 -0.863802 -0.40482
lowerneck -11.828 0.6147 -0.468496
upperneck 36.9428 0.763344 0.336878
head 14.7491 0.236881 0.324566
rclavicle 1.39149e-014 -2.46493e-014
rhumerus -44.3328 9.15571 -40.5036
rradius 65.594
rwrist -2.51148
rhand -13.579 -39.0672
rfingers 7.12502
rthumb 12.535 -68.6712
lclavicle 1.39149e-014 -2.46493e-014
lhumerus -22.4438 -2.62975 26.7222
lradius 27.2582
lwrist 5.08016
lhand -26.4349 -34.1496
lfingers 7.12502
lthumb 0.125658 -4.16993
rfemur -86.7917 -7.08963 24.4845
rtibia 111.994
rfoot 47.4959 9.72055
rtoes -11.1408
lfemur -19.0422 1.44841 -21.4829
ltibia 28.6163
lfoot -15.0566 2.7752
ltoes 13.8581
420
root 4.70193 17.5026 2.91674 8.31369 -5.97927 -7.70809
lowerback 4.91461 -1.45366 3.36737
upperback 2.56668 -1.78673 1.37635
thorax -0.172728 -0.873196 -0.384338
lowerneck -11.8029 0.614263 -0.434188
upperneck 36.9772 0.764003 0.303337
head 14.7602 0.23674 0.304532
rclavicle 1.61016e-014 -1.59028e-014
rhumerus -44.4584 9.13536 -40.4782
rradius 65.3357
rwrist -2.75271
rhand -13.4477 -39.6833
rfingers 7.12502
rthumb 12.6616 -69.2795
lclavicle 1.61016e-014 -1.59028e-014
lhumerus -22.6813 -2.51328 26.7614
lradius 27.0096
lwrist 4.92877
lhand -26.6149 -35.3097
lfingers 7.12502
lthumb -0.0481098 -5.33
rfemur -87.0695 -7.02688 24.7073
rtibia 112.083
rfoot 47.8433 9.86267
rtoes -11.1891
lfemur -18.9049 1.43302 -21.371
ltibia 28.4695
lfoot -14.9698 2.77998
ltoes 13.6482
